<svg width="336" height="78" viewBox="0 0 336 78" fill="none" xmlns="http://www.w3.org/2000/svg">
<g filter="url(#filter0_d_3_9)">
<path d="M83.2613 40.432C83.2613 38.192 83.5173 36 84.0293 33.856C84.5733 31.68 85.3253 29.632 86.2853 27.712C87.2453 25.76 88.3813 23.984 89.6933 22.384C91.0373 20.752 92.4933 19.344 94.0613 18.16C95.6613 16.976 97.3573 16.064 99.1493 15.424C100.941 14.752 102.781 14.416 104.669 14.416C106.877 14.416 108.589 14.88 109.805 15.808C111.053 16.736 111.677 18.032 111.677 19.696C111.677 20.336 111.581 20.992 111.389 21.664C111.229 22.336 110.973 23.008 110.621 23.68C110.301 24.32 109.917 24.944 109.469 25.552C109.021 26.16 108.525 26.688 107.981 27.136C107.149 27.008 106.429 26.64 105.821 26.032C105.213 25.392 104.829 24.656 104.669 23.824C105.789 22.896 106.669 21.936 107.309 20.944C107.981 19.92 108.317 18.992 108.317 18.16C108.317 16.752 107.437 16.048 105.677 16.048C104.941 16.048 104.173 16.208 103.373 16.528C102.605 16.816 101.821 17.232 101.021 17.776C100.221 18.32 99.4373 18.976 98.6693 19.744C97.9333 20.512 97.2453 21.36 96.6053 22.288C92.1573 28.688 89.9333 35.232 89.9333 41.92C89.9333 44.288 90.3013 46.192 91.0373 47.632C91.7733 49.072 92.7493 49.92 93.9653 50.176C95.3413 49.856 97.0853 48.976 99.1973 47.536C101.309 46.096 103.613 44.224 106.109 41.92C106.429 42.24 106.621 42.576 106.685 42.928C105.757 44.144 104.797 45.312 103.805 46.432C102.813 47.552 101.821 48.576 100.829 49.504C99.8693 50.432 98.9093 51.248 97.9493 51.952C97.0213 52.656 96.1573 53.2 95.3573 53.584C91.3893 53.52 88.3813 52.384 86.3333 50.176C84.2853 47.968 83.2613 44.72 83.2613 40.432ZM115.5 51.52C113.676 51.328 112.22 50.528 111.132 49.12C110.044 47.712 109.5 45.92 109.5 43.744C109.5 42.464 109.692 41.136 110.076 39.76C110.46 38.384 111.004 37.056 111.708 35.776C112.412 34.464 113.244 33.232 114.204 32.08C115.164 30.928 116.204 29.936 117.324 29.104C119.084 27.792 120.732 27.136 122.268 27.136C123.292 27.68 124.3 28.816 125.292 30.544C125.452 30.544 125.596 30.544 125.724 30.544C125.852 30.512 125.996 30.496 126.156 30.496C127.852 30.496 128.7 32 128.7 35.008C128.7 37.024 128.364 38.944 127.692 40.768C127.052 42.56 126.14 44.192 124.956 45.664C123.804 47.136 122.412 48.384 120.78 49.408C119.18 50.4 117.42 51.104 115.5 51.52ZM117.948 36.4C117.404 37.136 116.892 37.936 116.412 38.8C115.932 39.664 115.516 40.544 115.164 41.44C114.812 42.304 114.54 43.152 114.348 43.984C114.156 44.784 114.06 45.504 114.06 46.144C114.06 46.912 114.188 47.648 114.444 48.352C114.7 49.056 114.988 49.456 115.308 49.552C116.748 49.232 118.06 48.64 119.244 47.776C120.46 46.88 121.5 45.776 122.364 44.464C123.26 43.152 123.948 41.664 124.428 40C124.94 38.336 125.196 36.56 125.196 34.672C125.196 33.84 125.148 33.184 125.052 32.704C124.956 32.224 124.796 31.808 124.572 31.456C123.164 31.872 121.9 32.544 120.78 33.472C119.692 34.4 118.748 35.376 117.948 36.4ZM158.767 35.104C158.255 35.136 157.631 35.472 156.895 36.112C156.159 36.72 155.359 37.52 154.495 38.512C153.663 39.472 152.783 40.544 151.855 41.728C150.959 42.912 150.079 44.096 149.215 45.28C148.383 46.432 147.599 47.52 146.863 48.544C146.127 49.568 145.503 50.384 144.991 50.992C144.287 50.704 143.679 50.288 143.167 49.744C142.655 49.168 142.287 48.464 142.063 47.632C142.223 46.64 142.447 45.616 142.735 44.56C143.023 43.472 143.391 42.352 143.839 41.2C144.319 40.048 144.895 38.848 145.567 37.6C146.271 36.32 147.119 34.976 148.111 33.568C147.631 33.6 146.975 33.952 146.143 34.624C145.311 35.264 144.415 36.112 143.455 37.168C142.495 38.192 141.503 39.36 140.479 40.672C139.455 41.952 138.495 43.216 137.599 44.464C136.415 46.128 135.423 47.584 134.623 48.832C133.855 50.08 133.295 50.816 132.943 51.04C132.111 50.432 131.535 49.776 131.215 49.072C130.895 48.368 130.655 47.584 130.495 46.72C130.527 45.952 130.639 44.992 130.831 43.84C131.055 42.688 131.359 41.504 131.743 40.288C132.479 37.952 133.423 35.632 134.575 33.328C135.759 31.024 136.895 28.912 137.983 26.992C138.879 27.184 139.679 27.488 140.383 27.904C141.119 28.32 141.887 28.928 142.687 29.728C142.367 30.72 141.871 31.776 141.199 32.896C140.527 33.984 139.823 35.136 139.087 36.352C138.351 37.568 137.679 38.816 137.071 40.096C136.463 41.376 136.063 42.672 135.871 43.984C136.767 42.704 137.823 41.232 139.039 39.568C140.287 37.904 141.551 36.336 142.831 34.864C144.143 33.392 145.439 32.144 146.719 31.12C147.999 30.096 149.151 29.584 150.175 29.584C150.559 29.584 150.975 29.648 151.423 29.776C151.871 29.904 152.287 30.064 152.671 30.256C153.055 30.448 153.375 30.64 153.631 30.832C153.887 30.992 154.031 31.12 154.063 31.216C153.903 31.856 153.519 32.736 152.911 33.856C152.335 34.944 151.711 36.096 151.039 37.312C150.367 38.528 149.743 39.712 149.167 40.864C148.591 41.984 148.255 42.88 148.159 43.552C149.727 41.408 151.199 39.472 152.575 37.744C153.951 35.984 155.247 34.48 156.463 33.232C157.679 31.984 158.799 31.024 159.823 30.352C160.879 29.68 161.871 29.344 162.799 29.344C163.439 29.344 164.031 29.52 164.575 29.872C165.151 30.192 165.551 30.672 165.775 31.312C165.487 32.272 165.007 33.424 164.335 34.768C163.695 36.112 163.039 37.536 162.367 39.04C161.695 40.512 161.087 41.968 160.543 43.408C160.031 44.848 159.775 46.144 159.775 47.296C159.775 47.968 159.871 48.416 160.063 48.64C160.255 48.832 160.527 48.928 160.879 48.928C161.263 48.928 161.615 48.864 161.935 48.736C162.287 48.576 162.543 48.496 162.703 48.496C162.895 48.624 163.007 48.784 163.039 48.976C163.071 49.168 163.087 49.344 163.087 49.504C162.447 50.016 161.791 50.432 161.119 50.752C160.447 51.104 159.695 51.28 158.863 51.28C158.095 51.28 157.455 51.152 156.943 50.896C156.463 50.64 156.063 50.288 155.743 49.84C155.423 49.392 155.199 48.88 155.071 48.304C154.943 47.728 154.879 47.104 154.879 46.432C154.879 45.344 155.023 44.272 155.311 43.216C155.599 42.128 155.935 41.104 156.319 40.144C156.735 39.152 157.167 38.24 157.615 37.408C158.063 36.544 158.447 35.776 158.767 35.104ZM170.132 63.712C169.332 63.392 168.852 62.784 168.692 61.888C168.564 61.024 168.02 60.32 167.06 59.776C167.316 58.144 167.604 56.496 167.924 54.832C168.244 53.168 168.644 51.28 169.124 49.168C169.636 47.024 170.26 44.544 170.996 41.728C171.764 38.88 172.724 35.44 173.876 31.408C172.82 31.408 171.988 31.424 171.38 31.456C170.772 31.488 170.18 31.552 169.604 31.648C169.476 31.52 169.364 31.344 169.268 31.12C169.204 30.896 169.172 30.688 169.172 30.496C169.492 30.368 170.148 30.208 171.14 30.016C172.132 29.792 173.22 29.6 174.404 29.44C175.172 27.008 176.052 24.832 177.044 22.912C178.036 20.96 179.108 19.296 180.26 17.92C181.412 16.544 182.628 15.488 183.908 14.752C185.188 14.016 186.484 13.648 187.796 13.648C188.18 13.648 188.548 13.68 188.9 13.744C189.252 13.776 189.524 13.792 189.716 13.792C190.004 13.568 190.388 13.376 190.868 13.216C191.348 13.024 191.764 12.928 192.116 12.928C192.5 12.928 192.996 13.136 193.604 13.552C193.348 14 193.076 14.608 192.788 15.376C192.5 16.144 192.26 16.896 192.068 17.632C191.268 20 190.42 21.536 189.524 22.24C189.172 22.24 188.98 21.776 188.948 20.848C188.916 20.176 188.82 19.52 188.66 18.88C188.532 18.592 188.436 18.336 188.372 18.112C188.34 17.888 188.324 17.6 188.324 17.248C188.324 17.056 188.34 16.832 188.372 16.576C188.404 16.288 188.468 15.824 188.564 15.184C188.02 15.184 187.412 15.52 186.74 16.192C186.1 16.864 185.412 17.824 184.676 19.072C183.972 20.288 183.252 21.744 182.516 23.44C181.78 25.136 181.076 27.008 180.404 29.056L184.436 28.912C184.596 29.072 184.724 29.44 184.82 30.016C184.948 30.56 185.028 31.136 185.06 31.744L179.78 31.456C178.564 35.072 177.428 38.528 176.372 41.824C175.316 45.12 174.372 48.16 173.54 50.944C172.708 53.728 171.988 56.208 171.38 58.384C170.804 60.592 170.388 62.368 170.132 63.712ZM201.946 42.4C201.21 44.736 200.474 46.864 199.738 48.784C199.002 50.704 198.218 52.464 197.386 54.064C196.554 55.696 195.658 57.184 194.698 58.528C193.738 59.904 192.682 61.2 191.53 62.416C190.058 63.952 188.538 65.12 186.97 65.92C185.402 66.752 183.834 67.168 182.266 67.168C181.466 67.168 180.666 67.072 179.866 66.88C179.098 66.72 178.378 66.48 177.706 66.16C177.002 65.872 176.394 65.52 175.882 65.104C175.338 64.72 174.954 64.304 174.73 63.856C174.73 63.472 174.954 63.136 175.402 62.848C175.786 63.2 176.106 63.472 176.362 63.664C176.618 63.856 176.874 64.016 177.13 64.144C177.354 64.272 177.61 64.352 177.898 64.384C178.154 64.416 178.458 64.432 178.81 64.432C180.634 64.432 182.41 63.888 184.138 62.8C185.898 61.744 187.546 60.224 189.082 58.24C190.65 56.288 192.074 53.904 193.354 51.088C194.634 48.304 195.722 45.184 196.618 41.728C196.202 42.368 195.69 43.152 195.082 44.08C194.474 45.008 193.802 45.936 193.066 46.864C192.33 47.76 191.562 48.576 190.762 49.312C189.994 50.048 189.242 50.544 188.506 50.8C187.994 50.768 187.45 50.656 186.874 50.464C186.33 50.304 185.802 50.064 185.29 49.744C184.81 49.424 184.378 49.04 183.994 48.592C183.61 48.144 183.354 47.632 183.226 47.056C183.226 46.128 183.258 45.392 183.322 44.848C183.386 44.272 183.498 43.648 183.658 42.976C183.946 41.76 184.362 40.384 184.906 38.848C185.482 37.312 186.138 35.808 186.874 34.336C187.642 32.832 188.474 31.44 189.37 30.16C190.298 28.848 191.258 27.824 192.25 27.088C192.506 27.088 192.826 27.12 193.21 27.184C193.594 27.216 193.994 27.296 194.41 27.424C194.826 27.552 195.226 27.712 195.61 27.904C195.994 28.064 196.33 28.288 196.618 28.576C196.266 28.896 195.498 29.968 194.314 31.792C193.13 33.616 191.818 36.24 190.378 39.664C190.218 40.016 190.026 40.528 189.802 41.2C189.578 41.872 189.354 42.576 189.13 43.312C188.938 44.048 188.762 44.768 188.602 45.472C188.442 46.176 188.362 46.736 188.362 47.152C188.362 47.408 188.394 47.6 188.458 47.728C188.554 47.856 188.634 47.952 188.698 48.016C189.274 47.92 190.042 47.456 191.002 46.624C191.962 45.76 193.05 44.432 194.266 42.64C195.034 41.488 195.738 40.352 196.378 39.232C197.018 38.08 197.642 36.928 198.25 35.776C198.89 34.624 199.546 33.44 200.218 32.224C200.89 31.008 201.61 29.76 202.378 28.48C202.794 28.48 203.242 28.528 203.722 28.624C204.202 28.72 204.666 28.848 205.114 29.008C205.562 29.136 205.946 29.296 206.266 29.488C206.618 29.648 206.874 29.824 207.034 30.016C206.042 32.128 205.114 34.192 204.25 36.208C203.386 38.224 202.618 40.288 201.946 42.4Z" fill="white"/>
<path d="M238.871 17.488C238.967 18.032 239.031 18.416 239.063 18.64C239.127 18.832 239.159 19.104 239.159 19.456C239.159 20.512 238.919 21.504 238.439 22.432C237.991 23.328 237.367 23.968 236.567 24.352C235.927 23.488 235.143 22.752 234.215 22.144C233.287 21.504 232.263 20.992 231.143 20.608C230.055 20.192 228.919 19.888 227.735 19.696C226.551 19.504 225.399 19.408 224.279 19.408C223.159 19.408 222.103 19.504 221.111 19.696C220.151 19.856 219.287 20.096 218.519 20.416C217.783 20.704 217.191 21.072 216.743 21.52C216.327 21.968 216.119 22.48 216.119 23.056C216.215 23.76 216.647 24.48 217.415 25.216C218.183 25.92 219.127 26.624 220.247 27.328C221.367 28 222.599 28.672 223.943 29.344C225.319 30.016 226.663 30.656 227.975 31.264C229.607 32.032 231.015 32.752 232.199 33.424C233.383 34.064 234.359 34.784 235.127 35.584C235.895 36.352 236.471 37.232 236.855 38.224C237.239 39.216 237.431 40.416 237.431 41.824C237.431 43.456 237.159 44.992 236.615 46.432C236.071 47.84 235.271 49.072 234.215 50.128C233.191 51.184 231.943 52 230.471 52.576C228.999 53.184 227.351 53.488 225.527 53.488C223.735 53.488 221.799 53.216 219.719 52.672C217.639 52.128 215.687 51.376 213.863 50.416C212.071 49.488 210.567 48.416 209.351 47.2C208.167 45.952 207.575 44.64 207.575 43.264C207.575 42.624 207.751 41.808 208.103 40.816C208.487 39.824 209.159 38.784 210.119 37.696C210.215 38.656 210.727 39.792 211.655 41.104C212.615 42.416 214.039 43.632 215.927 44.752C217.687 45.776 219.495 46.528 221.351 47.008C223.239 47.456 224.999 47.68 226.631 47.68C228.423 47.68 229.879 47.456 230.999 47.008C232.119 46.56 232.999 46.032 233.639 45.424C234.279 44.784 234.727 44.144 234.983 43.504C235.239 42.864 235.383 42.352 235.415 41.968C235.383 41.328 235.079 40.72 234.503 40.144C233.959 39.536 233.207 38.96 232.247 38.416C231.319 37.84 230.231 37.264 228.983 36.688C227.735 36.112 226.439 35.536 225.095 34.96C223.079 34.064 221.335 33.232 219.863 32.464C218.423 31.664 217.223 30.864 216.263 30.064C215.335 29.232 214.647 28.368 214.199 27.472C213.783 26.576 213.575 25.552 213.575 24.4C213.575 22.608 214.119 20.912 215.207 19.312C216.295 17.712 217.863 16.496 219.911 15.664C220.935 15.216 222.023 14.896 223.175 14.704C224.359 14.512 225.511 14.416 226.631 14.416C228.743 14.416 230.807 14.704 232.823 15.28C234.839 15.856 236.855 16.592 238.871 17.488ZM240.616 46.768C240.616 45.36 240.952 43.392 241.624 40.864C242.296 38.304 243.24 35.328 244.456 31.936C246.44 26.528 248.296 22.032 250.024 18.448C251.784 14.832 253.496 12.016 255.16 10C255.544 10.064 256.008 10.224 256.552 10.48C257.128 10.736 257.688 11.024 258.232 11.344C258.776 11.632 259.256 11.936 259.672 12.256C260.12 12.576 260.408 12.832 260.536 13.024C258.04 15.968 255.848 19.136 253.96 22.528C252.072 25.92 250.344 29.808 248.776 34.192C247.432 37.968 246.408 41.376 245.704 44.416C245 47.424 244.648 49.936 244.648 51.952C244.648 52.496 244.648 52.832 244.648 52.96C244.648 53.088 244.664 53.216 244.696 53.344C244.248 53.28 243.864 53.168 243.544 53.008C243.224 52.848 243.016 52.656 242.92 52.432C242.856 52.272 242.68 52.032 242.392 51.712C242.104 51.424 241.848 51.2 241.624 51.04C241.336 50.848 241.096 50.352 240.904 49.552C240.712 48.72 240.616 47.792 240.616 46.768ZM257.484 51.52C255.66 51.328 254.204 50.528 253.116 49.12C252.028 47.712 251.484 45.92 251.484 43.744C251.484 42.464 251.676 41.136 252.06 39.76C252.444 38.384 252.988 37.056 253.692 35.776C254.396 34.464 255.228 33.232 256.188 32.08C257.148 30.928 258.188 29.936 259.308 29.104C261.068 27.792 262.716 27.136 264.252 27.136C265.276 27.68 266.284 28.816 267.276 30.544C267.436 30.544 267.58 30.544 267.708 30.544C267.836 30.512 267.98 30.496 268.14 30.496C269.836 30.496 270.684 32 270.684 35.008C270.684 37.024 270.348 38.944 269.676 40.768C269.036 42.56 268.124 44.192 266.94 45.664C265.788 47.136 264.396 48.384 262.764 49.408C261.164 50.4 259.404 51.104 257.484 51.52ZM259.932 36.4C259.388 37.136 258.876 37.936 258.396 38.8C257.916 39.664 257.5 40.544 257.148 41.44C256.796 42.304 256.524 43.152 256.332 43.984C256.14 44.784 256.044 45.504 256.044 46.144C256.044 46.912 256.172 47.648 256.428 48.352C256.684 49.056 256.972 49.456 257.292 49.552C258.732 49.232 260.044 48.64 261.228 47.776C262.444 46.88 263.484 45.776 264.348 44.464C265.244 43.152 265.932 41.664 266.412 40C266.924 38.336 267.18 36.56 267.18 34.672C267.18 33.84 267.132 33.184 267.036 32.704C266.94 32.224 266.78 31.808 266.556 31.456C265.148 31.872 263.884 32.544 262.764 33.472C261.676 34.4 260.732 35.376 259.932 36.4ZM275.371 31.456C275.211 31.264 275.067 30.864 274.939 30.256C274.811 29.616 274.747 29.072 274.747 28.624C275.579 28.688 276.379 28.752 277.147 28.816C277.915 28.848 278.619 28.88 279.259 28.912C279.739 27.952 280.251 27.008 280.795 26.08C281.371 25.12 281.915 24.256 282.427 23.488C282.971 22.688 283.467 22.016 283.915 21.472C284.395 20.928 284.763 20.576 285.019 20.416C285.339 20.416 285.739 20.48 286.219 20.608C286.731 20.704 287.243 20.848 287.755 21.04C288.267 21.2 288.731 21.376 289.147 21.568C289.563 21.76 289.851 21.952 290.011 22.144C289.051 23.36 288.219 24.496 287.515 25.552C286.843 26.576 286.107 27.76 285.307 29.104C285.947 29.104 286.587 29.088 287.227 29.056C287.899 29.024 288.571 28.976 289.243 28.912C289.403 29.072 289.531 29.28 289.627 29.536C289.723 29.76 289.771 30 289.771 30.256C288.203 30.832 286.299 31.152 284.059 31.216C283.259 32.752 282.539 34.288 281.899 35.824C281.291 37.328 280.763 38.784 280.315 40.192C279.899 41.6 279.563 42.928 279.307 44.176C279.083 45.424 278.971 46.544 278.971 47.536C278.971 48.944 279.499 49.728 280.555 49.888C281.515 49.76 282.427 49.52 283.291 49.168C284.155 48.816 284.923 48.368 285.595 47.824C285.787 48.112 285.899 48.352 285.931 48.544C285.739 48.832 285.403 49.168 284.923 49.552C284.475 49.936 283.979 50.304 283.435 50.656C282.891 51.04 282.363 51.36 281.851 51.616C281.339 51.872 280.955 52.016 280.699 52.048C279.899 52.016 279.099 51.84 278.299 51.52C277.499 51.2 276.763 50.8 276.091 50.32C275.451 49.84 274.923 49.312 274.507 48.736C274.091 48.128 273.883 47.536 273.883 46.96C273.883 46.192 273.979 45.232 274.171 44.08C274.395 42.896 274.699 41.616 275.083 40.24C275.467 38.864 275.915 37.424 276.427 35.92C276.939 34.416 277.499 32.928 278.107 31.456H275.371ZM289.366 49.024C289.366 47.904 289.478 46.592 289.702 45.088C289.926 43.552 290.246 41.92 290.662 40.192C291.11 38.464 291.622 36.656 292.198 34.768C292.806 32.88 293.478 30.992 294.214 29.104C294.854 27.408 295.59 25.696 296.422 23.968C297.286 22.24 298.214 20.544 299.206 18.88C300.198 17.216 301.222 15.632 302.278 14.128C303.366 12.624 304.454 11.248 305.542 10C306.054 10 306.598 10.064 307.174 10.192C307.782 10.32 308.358 10.496 308.902 10.72C309.478 10.912 309.99 11.152 310.438 11.44C310.918 11.728 311.302 12.016 311.59 12.304C309.19 14.768 307.03 17.264 305.11 19.792C303.19 22.288 301.67 24.64 300.55 26.848C299.942 28.064 299.382 29.2 298.87 30.256C298.39 31.312 297.942 32.368 297.526 33.424C297.11 34.448 296.726 35.488 296.374 36.544C296.054 37.568 295.75 38.656 295.462 39.808C301.606 31.968 306.166 28.048 309.142 28.048C309.974 28.048 310.87 28.32 311.83 28.864C312.79 29.408 313.638 30.144 314.374 31.072C313.382 32.16 312.358 33.472 311.302 35.008C310.246 36.544 309.27 38.096 308.374 39.664C307.51 41.2 306.79 42.64 306.214 43.984C305.67 45.296 305.398 46.272 305.398 46.912C305.398 47.232 305.446 47.456 305.542 47.584C305.638 47.68 305.846 47.728 306.166 47.728C306.646 47.728 307.03 47.664 307.318 47.536C307.606 47.408 307.782 47.344 307.846 47.344C308.006 47.6 308.102 47.776 308.134 47.872C308.166 47.968 308.182 48.048 308.182 48.112C308.182 48.24 307.99 48.432 307.606 48.688C307.222 48.912 306.758 49.152 306.214 49.408C305.702 49.632 305.19 49.84 304.678 50.032C304.166 50.224 303.782 50.32 303.526 50.32C303.206 50.32 302.886 50.224 302.566 50.032C302.246 49.872 301.958 49.648 301.702 49.36C301.478 49.072 301.286 48.752 301.126 48.4C300.998 48.048 300.934 47.68 300.934 47.296C300.934 46.816 301.062 46.112 301.318 45.184C301.606 44.224 301.99 43.12 302.47 41.872C302.95 40.592 303.526 39.2 304.198 37.696C304.87 36.192 305.59 34.656 306.358 33.088C306.358 32.96 306.294 32.896 306.166 32.896C306.07 32.896 305.814 33.024 305.398 33.28C305.014 33.536 304.646 33.792 304.294 34.048C303.142 34.912 301.974 35.984 300.79 37.264C299.638 38.512 298.502 39.888 297.382 41.392C296.294 42.896 295.254 44.496 294.262 46.192C293.302 47.856 292.47 49.536 291.766 51.232C291.67 51.456 291.526 51.664 291.334 51.856C291.142 52.048 290.982 52.144 290.854 52.144C290.758 52.144 290.614 52.032 290.422 51.808C290.262 51.584 290.102 51.296 289.942 50.944C289.814 50.624 289.686 50.288 289.558 49.936C289.43 49.584 289.366 49.28 289.366 49.024Z" fill="#F66249"/>
</g>
<g clip-path="url(#clip0_3_9)">
<path d="M68.7704 75.0343H35.137C35.0068 75.0343 34.8779 75.0087 34.7577 74.9588C34.6375 74.9089 34.5283 74.8357 34.4365 74.7436C34.3446 74.6514 34.2718 74.542 34.2222 74.4216C34.1727 74.3013 34.1474 74.1723 34.1478 74.0422V73.9935V73.9965L36.1261 34.5926C36.1408 34.3409 36.2511 34.1044 36.4344 33.9313C36.6176 33.7582 36.8601 33.6616 37.1122 33.6613H66.7922C67.3187 33.6613 67.7478 34.0722 67.7783 34.5896V34.5926L69.7474 73.7987C69.7657 73.8717 69.7778 73.957 69.7778 74.0452V74.0483C69.7778 74.3098 69.6739 74.5606 69.489 74.7455C69.3041 74.9305 69.0533 75.0343 68.7917 75.0343H68.7887H68.7704ZM41.0809 41.9274C41.087 43.3517 42.0213 44.5539 43.3087 44.9648L43.33 44.9709C44.3678 49.9956 47.9378 53.7148 52.1804 53.7148C56.423 53.7148 59.987 49.9926 61.0187 44.9861C61.7091 44.7821 62.3109 44.3522 62.7279 43.7654C63.1448 43.1786 63.3527 42.4688 63.3182 41.7498C63.2837 41.0307 63.0087 40.3441 62.5375 39.7999C62.0662 39.2558 61.4259 38.8856 60.7192 38.7487C60.0125 38.6117 59.2802 38.7161 58.6399 39.0449C57.9995 39.3737 57.4881 39.908 57.1875 40.5622C56.887 41.2163 56.8148 41.9524 56.9824 42.6524C57.1501 43.3525 57.5479 43.976 58.1122 44.423L58.1183 44.4291C57.3635 48.0752 54.9865 50.7504 52.1683 50.7504C49.35 50.7504 46.9852 48.0904 46.2243 44.4596C46.654 44.1269 46.992 43.6904 47.2064 43.191C47.4208 42.6917 47.5045 42.146 47.4498 41.6054C47.3951 41.0647 47.2036 40.5469 46.8935 40.1007C46.5834 39.6545 46.1648 39.2945 45.6772 39.0547C45.1896 38.8149 44.6489 38.7032 44.1062 38.73C43.5634 38.7569 43.0365 38.9214 42.5749 39.2082C42.1133 39.4949 41.7323 39.8944 41.4677 40.3691C41.2031 40.8437 41.0637 41.3779 41.0626 41.9213V41.9304L41.0809 41.9274ZM0.989131 71.1478C0.854752 71.1476 0.721824 71.12 0.598459 71.0668C0.475094 71.0135 0.36388 70.9356 0.271604 70.8379C0.179327 70.7402 0.107923 70.6248 0.0617499 70.4986C0.0155764 70.3724 -0.00439849 70.2381 0.00304423 70.1039V70.107L2.75435 15.3396C2.76909 15.0879 2.87935 14.8514 3.06263 14.6783C3.2459 14.5052 3.48835 14.4086 3.74044 14.4083H10.4483C12.5513 7.10391 18.1635 2.00304 24.6887 2.00304C31.2139 2.00304 36.82 7.10695 38.923 14.4022H44.9948C45.5183 14.4022 45.9504 14.813 45.9778 15.3304V15.3335L46.7722 31.187H37.1122C35.2617 31.187 33.7522 32.6387 33.6578 34.4648V34.4739L31.8165 71.1509L0.989131 71.1478ZM33.32 19.2809C32.5284 19.7969 31.9245 20.5545 31.5981 21.4413C31.2717 22.328 31.2402 23.2964 31.5082 24.2024C31.7763 25.1085 32.3296 25.9039 33.0859 26.4703C33.8423 27.0367 34.7612 27.3438 35.7061 27.3461C36.7327 27.3506 37.7284 26.9945 38.5193 26.34C39.3103 25.6854 39.8463 24.774 40.034 23.7646C40.2217 22.7553 40.049 21.7121 39.5462 20.817C39.0434 19.9219 38.2423 19.2318 37.2826 18.867L37.2522 18.8578C36.5339 10.7683 31.1743 4.46521 24.6917 4.46521C18.2091 4.46521 12.8283 10.7804 12.1191 18.8852C11.2021 19.244 10.4325 19.9011 9.93461 20.7507C9.4367 21.6003 9.23943 22.5929 9.37462 23.5683C9.5098 24.5437 9.96956 25.4452 10.6798 26.1274C11.39 26.8095 12.3092 27.2326 13.2893 27.3285C14.2694 27.4243 15.2532 27.1872 16.082 26.6555C16.9109 26.1238 17.5366 25.3285 17.8581 24.3977C18.1797 23.4669 18.1784 22.455 17.8544 21.525C17.5305 20.5951 16.9028 19.8013 16.0726 19.2717L16.0543 19.2626C16.5657 13.1696 20.2422 8.42782 24.6917 8.42782C29.1413 8.42782 32.827 13.1848 33.3291 19.29L33.32 19.2809ZM19.9622 14.3961H29.397C28.9958 13.4492 28.3501 12.626 27.5259 12.0109C26.7018 11.3959 25.7289 11.0111 24.707 10.8961L24.6796 10.893C22.5491 11.1274 20.7839 12.4909 19.9774 14.3626L19.9622 14.3991V14.3961ZM58.9157 41.8422C58.9041 41.6828 58.9255 41.5228 58.9785 41.3721C59.0316 41.2214 59.1151 41.0833 59.2239 40.9663C59.3327 40.8493 59.4645 40.756 59.6109 40.6922C59.7574 40.6284 59.9155 40.5955 60.0752 40.5955C60.235 40.5955 60.393 40.6284 60.5395 40.6922C60.686 40.756 60.8177 40.8493 60.9265 40.9663C61.0353 41.0833 61.1188 41.2214 61.1719 41.3721C61.2249 41.5228 61.2463 41.6828 61.2348 41.8422C61.2091 42.1316 61.0759 42.4008 60.8616 42.5969C60.6473 42.7931 60.3673 42.9018 60.0767 42.9018C59.7862 42.9018 59.5062 42.7931 59.2919 42.5969C59.0775 42.4008 58.9444 42.1316 58.9187 41.8422H58.9157ZM43.0165 41.8422C43.0165 41.6122 43.0847 41.3874 43.2125 41.1963C43.3402 41.0051 43.5218 40.8561 43.7342 40.7681C43.9467 40.6801 44.1804 40.657 44.4059 40.7019C44.6315 40.7468 44.8386 40.8575 45.0012 41.0201C45.1638 41.1827 45.2745 41.3898 45.3194 41.6154C45.3643 41.8409 45.3412 42.0746 45.2532 42.2871C45.1652 42.4995 45.0162 42.6811 44.825 42.8088C44.6339 42.9366 44.4091 43.0048 44.1791 43.0048C43.8729 43.0016 43.5803 42.8777 43.3649 42.66C43.1495 42.4423 43.0287 42.1484 43.0287 41.8422H43.0165ZM33.9591 23.137C33.9591 22.6789 34.1411 22.2396 34.465 21.9157C34.7889 21.5917 35.2282 21.4098 35.6863 21.4098C36.1444 21.4098 36.5837 21.5917 36.9076 21.9157C37.2315 22.2396 37.4135 22.6789 37.4135 23.137C37.4135 23.595 37.2315 24.0343 36.9076 24.3582C36.5837 24.6822 36.1444 24.8641 35.6863 24.8641C35.2282 24.8641 34.7889 24.6822 34.465 24.3582C34.1411 24.0343 33.9591 23.595 33.9591 23.137V23.137ZM11.9609 23.137C11.9436 22.8992 11.9755 22.6604 12.0546 22.4355C12.1337 22.2106 12.2584 22.0044 12.4207 21.8298C12.5831 21.6552 12.7797 21.516 12.9983 21.4208C13.2168 21.3255 13.4527 21.2764 13.6911 21.2764C13.9295 21.2764 14.1654 21.3255 14.3839 21.4208C14.6025 21.516 14.7991 21.6552 14.9615 21.8298C15.1238 22.0044 15.2484 22.2106 15.3276 22.4355C15.4067 22.6604 15.4386 22.8992 15.4213 23.137C15.3849 23.5704 15.187 23.9743 14.8668 24.2687C14.5467 24.5631 14.1276 24.7265 13.6926 24.7265C13.2577 24.7265 12.8386 24.5631 12.5184 24.2687C12.1982 23.9743 12.0003 23.5704 11.9639 23.137H11.9609Z" fill="white"/>
</g>
<defs>
<filter id="filter0_d_3_9" x="79.2613" y="10" width="239.113" height="65.168" filterUnits="userSpaceOnUse" color-interpolation-filters="sRGB">
<feFlood flood-opacity="0" result="BackgroundImageFix"/>
<feColorMatrix in="SourceAlpha" type="matrix" values="0 0 0 0 0 0 0 0 0 0 0 0 0 0 0 0 0 0 127 0" result="hardAlpha"/>
<feOffset dy="4"/>
<feGaussianBlur stdDeviation="2"/>
<feColorMatrix type="matrix" values="0 0 0 0 0 0 0 0 0 0 0 0 0 0 0 0 0 0 0.25 0"/>
<feBlend mode="normal" in2="BackgroundImageFix" result="effect1_dropShadow_3_9"/>
<feBlend mode="normal" in="SourceGraphic" in2="effect1_dropShadow_3_9" result="shape"/>
</filter>
<clipPath id="clip0_3_9">
<rect width="70" height="73.0435" fill="white" transform="translate(0 2)"/>
</clipPath>
</defs>
</svg>
