<svg width="266" height="78" viewBox="0 0 266 78" fill="none" xmlns="http://www.w3.org/2000/svg">
<g filter="url(#filter0_d_3_2)">
<path d="M13.2613 40.432C13.2613 38.192 13.5173 36 14.0293 33.856C14.5733 31.68 15.3253 29.632 16.2853 27.712C17.2453 25.76 18.3813 23.984 19.6933 22.384C21.0373 20.752 22.4933 19.344 24.0613 18.16C25.6613 16.976 27.3573 16.064 29.1493 15.424C30.9413 14.752 32.7813 14.416 34.6693 14.416C36.8773 14.416 38.5893 14.88 39.8053 15.808C41.0533 16.736 41.6773 18.032 41.6773 19.696C41.6773 20.336 41.5813 20.992 41.3893 21.664C41.2293 22.336 40.9733 23.008 40.6213 23.68C40.3013 24.32 39.9173 24.944 39.4693 25.552C39.0213 26.16 38.5253 26.688 37.9813 27.136C37.1493 27.008 36.4293 26.64 35.8213 26.032C35.2133 25.392 34.8293 24.656 34.6693 23.824C35.7893 22.896 36.6693 21.936 37.3093 20.944C37.9813 19.92 38.3173 18.992 38.3173 18.16C38.3173 16.752 37.4373 16.048 35.6773 16.048C34.9413 16.048 34.1733 16.208 33.3733 16.528C32.6053 16.816 31.8213 17.232 31.0213 17.776C30.2213 18.32 29.4373 18.976 28.6693 19.744C27.9333 20.512 27.2453 21.36 26.6053 22.288C22.1573 28.688 19.9333 35.232 19.9333 41.92C19.9333 44.288 20.3013 46.192 21.0373 47.632C21.7733 49.072 22.7493 49.92 23.9653 50.176C25.3413 49.856 27.0853 48.976 29.1973 47.536C31.3093 46.096 33.6133 44.224 36.1093 41.92C36.4293 42.24 36.6213 42.576 36.6853 42.928C35.7573 44.144 34.7973 45.312 33.8053 46.432C32.8133 47.552 31.8213 48.576 30.8293 49.504C29.8693 50.432 28.9093 51.248 27.9493 51.952C27.0213 52.656 26.1573 53.2 25.3573 53.584C21.3893 53.52 18.3813 52.384 16.3333 50.176C14.2853 47.968 13.2613 44.72 13.2613 40.432ZM45.4997 51.52C43.6757 51.328 42.2197 50.528 41.1317 49.12C40.0437 47.712 39.4997 45.92 39.4997 43.744C39.4997 42.464 39.6917 41.136 40.0757 39.76C40.4597 38.384 41.0037 37.056 41.7077 35.776C42.4117 34.464 43.2437 33.232 44.2037 32.08C45.1637 30.928 46.2037 29.936 47.3237 29.104C49.0837 27.792 50.7317 27.136 52.2677 27.136C53.2917 27.68 54.2997 28.816 55.2917 30.544C55.4517 30.544 55.5957 30.544 55.7237 30.544C55.8517 30.512 55.9957 30.496 56.1557 30.496C57.8517 30.496 58.6997 32 58.6997 35.008C58.6997 37.024 58.3637 38.944 57.6917 40.768C57.0517 42.56 56.1397 44.192 54.9557 45.664C53.8037 47.136 52.4117 48.384 50.7797 49.408C49.1797 50.4 47.4197 51.104 45.4997 51.52ZM47.9477 36.4C47.4037 37.136 46.8917 37.936 46.4117 38.8C45.9317 39.664 45.5157 40.544 45.1637 41.44C44.8117 42.304 44.5397 43.152 44.3477 43.984C44.1557 44.784 44.0597 45.504 44.0597 46.144C44.0597 46.912 44.1877 47.648 44.4437 48.352C44.6997 49.056 44.9877 49.456 45.3077 49.552C46.7477 49.232 48.0597 48.64 49.2437 47.776C50.4597 46.88 51.4997 45.776 52.3637 44.464C53.2597 43.152 53.9477 41.664 54.4277 40C54.9397 38.336 55.1957 36.56 55.1957 34.672C55.1957 33.84 55.1477 33.184 55.0517 32.704C54.9557 32.224 54.7957 31.808 54.5717 31.456C53.1637 31.872 51.8997 32.544 50.7797 33.472C49.6917 34.4 48.7477 35.376 47.9477 36.4ZM88.7672 35.104C88.2552 35.136 87.6312 35.472 86.8952 36.112C86.1592 36.72 85.3592 37.52 84.4952 38.512C83.6632 39.472 82.7832 40.544 81.8552 41.728C80.9592 42.912 80.0792 44.096 79.2152 45.28C78.3832 46.432 77.5992 47.52 76.8632 48.544C76.1272 49.568 75.5032 50.384 74.9912 50.992C74.2872 50.704 73.6792 50.288 73.1672 49.744C72.6552 49.168 72.2872 48.464 72.0632 47.632C72.2232 46.64 72.4472 45.616 72.7352 44.56C73.0232 43.472 73.3912 42.352 73.8392 41.2C74.3192 40.048 74.8952 38.848 75.5672 37.6C76.2712 36.32 77.1192 34.976 78.1112 33.568C77.6312 33.6 76.9752 33.952 76.1432 34.624C75.3112 35.264 74.4152 36.112 73.4552 37.168C72.4952 38.192 71.5032 39.36 70.4792 40.672C69.4552 41.952 68.4952 43.216 67.5992 44.464C66.4152 46.128 65.4232 47.584 64.6232 48.832C63.8552 50.08 63.2952 50.816 62.9432 51.04C62.1112 50.432 61.5352 49.776 61.2152 49.072C60.8952 48.368 60.6552 47.584 60.4952 46.72C60.5272 45.952 60.6392 44.992 60.8312 43.84C61.0552 42.688 61.3592 41.504 61.7432 40.288C62.4792 37.952 63.4232 35.632 64.5752 33.328C65.7592 31.024 66.8952 28.912 67.9832 26.992C68.8792 27.184 69.6792 27.488 70.3832 27.904C71.1192 28.32 71.8872 28.928 72.6872 29.728C72.3672 30.72 71.8712 31.776 71.1992 32.896C70.5272 33.984 69.8232 35.136 69.0872 36.352C68.3512 37.568 67.6792 38.816 67.0712 40.096C66.4632 41.376 66.0632 42.672 65.8712 43.984C66.7672 42.704 67.8232 41.232 69.0392 39.568C70.2872 37.904 71.5512 36.336 72.8312 34.864C74.1432 33.392 75.4392 32.144 76.7192 31.12C77.9992 30.096 79.1512 29.584 80.1752 29.584C80.5592 29.584 80.9752 29.648 81.4232 29.776C81.8712 29.904 82.2872 30.064 82.6712 30.256C83.0552 30.448 83.3752 30.64 83.6312 30.832C83.8872 30.992 84.0312 31.12 84.0632 31.216C83.9032 31.856 83.5192 32.736 82.9112 33.856C82.3352 34.944 81.7112 36.096 81.0392 37.312C80.3672 38.528 79.7432 39.712 79.1672 40.864C78.5912 41.984 78.2552 42.88 78.1592 43.552C79.7272 41.408 81.1992 39.472 82.5752 37.744C83.9512 35.984 85.2472 34.48 86.4632 33.232C87.6792 31.984 88.7992 31.024 89.8232 30.352C90.879 29.68 91.871 29.344 92.799 29.344C93.439 29.344 94.031 29.52 94.575 29.872C95.151 30.192 95.551 30.672 95.775 31.312C95.487 32.272 95.007 33.424 94.335 34.768C93.695 36.112 93.039 37.536 92.367 39.04C91.695 40.512 91.087 41.968 90.543 43.408C90.031 44.848 89.7752 46.144 89.7752 47.296C89.7752 47.968 89.8712 48.416 90.063 48.64C90.255 48.832 90.527 48.928 90.879 48.928C91.263 48.928 91.615 48.864 91.935 48.736C92.287 48.576 92.543 48.496 92.703 48.496C92.895 48.624 93.007 48.784 93.039 48.976C93.071 49.168 93.087 49.344 93.087 49.504C92.447 50.016 91.791 50.432 91.119 50.752C90.447 51.104 89.6952 51.28 88.8632 51.28C88.0952 51.28 87.4552 51.152 86.9432 50.896C86.4632 50.64 86.0632 50.288 85.7432 49.84C85.4232 49.392 85.1992 48.88 85.0712 48.304C84.9432 47.728 84.8792 47.104 84.8792 46.432C84.8792 45.344 85.0232 44.272 85.3112 43.216C85.5992 42.128 85.9352 41.104 86.3192 40.144C86.7352 39.152 87.1672 38.24 87.6152 37.408C88.0632 36.544 88.4472 35.776 88.7672 35.104ZM100.132 63.712C99.332 63.392 98.852 62.784 98.692 61.888C98.564 61.024 98.02 60.32 97.06 59.776C97.316 58.144 97.604 56.496 97.924 54.832C98.244 53.168 98.644 51.28 99.124 49.168C99.636 47.024 100.26 44.544 100.996 41.728C101.764 38.88 102.724 35.44 103.876 31.408C102.82 31.408 101.988 31.424 101.38 31.456C100.772 31.488 100.18 31.552 99.604 31.648C99.476 31.52 99.364 31.344 99.268 31.12C99.204 30.896 99.172 30.688 99.172 30.496C99.492 30.368 100.148 30.208 101.14 30.016C102.132 29.792 103.22 29.6 104.404 29.44C105.172 27.008 106.052 24.832 107.044 22.912C108.036 20.96 109.108 19.296 110.26 17.92C111.412 16.544 112.628 15.488 113.908 14.752C115.188 14.016 116.484 13.648 117.796 13.648C118.18 13.648 118.548 13.68 118.9 13.744C119.252 13.776 119.524 13.792 119.716 13.792C120.004 13.568 120.388 13.376 120.868 13.216C121.348 13.024 121.764 12.928 122.116 12.928C122.5 12.928 122.996 13.136 123.604 13.552C123.348 14 123.076 14.608 122.788 15.376C122.5 16.144 122.26 16.896 122.068 17.632C121.268 20 120.42 21.536 119.524 22.24C119.172 22.24 118.98 21.776 118.948 20.848C118.916 20.176 118.82 19.52 118.66 18.88C118.532 18.592 118.436 18.336 118.372 18.112C118.34 17.888 118.324 17.6 118.324 17.248C118.324 17.056 118.34 16.832 118.372 16.576C118.404 16.288 118.468 15.824 118.564 15.184C118.02 15.184 117.412 15.52 116.74 16.192C116.1 16.864 115.412 17.824 114.676 19.072C113.972 20.288 113.252 21.744 112.516 23.44C111.78 25.136 111.076 27.008 110.404 29.056L114.436 28.912C114.596 29.072 114.724 29.44 114.82 30.016C114.948 30.56 115.028 31.136 115.06 31.744L109.78 31.456C108.564 35.072 107.428 38.528 106.372 41.824C105.316 45.12 104.372 48.16 103.54 50.944C102.708 53.728 101.988 56.208 101.38 58.384C100.804 60.592 100.388 62.368 100.132 63.712ZM131.946 42.4C131.21 44.736 130.474 46.864 129.738 48.784C129.002 50.704 128.218 52.464 127.386 54.064C126.554 55.696 125.658 57.184 124.698 58.528C123.738 59.904 122.682 61.2 121.53 62.416C120.058 63.952 118.538 65.12 116.97 65.92C115.402 66.752 113.834 67.168 112.266 67.168C111.466 67.168 110.666 67.072 109.866 66.88C109.098 66.72 108.378 66.48 107.706 66.16C107.002 65.872 106.394 65.52 105.882 65.104C105.338 64.72 104.954 64.304 104.73 63.856C104.73 63.472 104.954 63.136 105.402 62.848C105.786 63.2 106.106 63.472 106.362 63.664C106.618 63.856 106.874 64.016 107.13 64.144C107.354 64.272 107.61 64.352 107.898 64.384C108.154 64.416 108.458 64.432 108.81 64.432C110.634 64.432 112.41 63.888 114.138 62.8C115.898 61.744 117.546 60.224 119.082 58.24C120.65 56.288 122.074 53.904 123.354 51.088C124.634 48.304 125.722 45.184 126.618 41.728C126.202 42.368 125.69 43.152 125.082 44.08C124.474 45.008 123.802 45.936 123.066 46.864C122.33 47.76 121.562 48.576 120.762 49.312C119.994 50.048 119.242 50.544 118.506 50.8C117.994 50.768 117.45 50.656 116.874 50.464C116.33 50.304 115.802 50.064 115.29 49.744C114.81 49.424 114.378 49.04 113.994 48.592C113.61 48.144 113.354 47.632 113.226 47.056C113.226 46.128 113.258 45.392 113.322 44.848C113.386 44.272 113.498 43.648 113.658 42.976C113.946 41.76 114.362 40.384 114.906 38.848C115.482 37.312 116.138 35.808 116.874 34.336C117.642 32.832 118.474 31.44 119.37 30.16C120.298 28.848 121.258 27.824 122.25 27.088C122.506 27.088 122.826 27.12 123.21 27.184C123.594 27.216 123.994 27.296 124.41 27.424C124.826 27.552 125.226 27.712 125.61 27.904C125.994 28.064 126.33 28.288 126.618 28.576C126.266 28.896 125.498 29.968 124.314 31.792C123.13 33.616 121.818 36.24 120.378 39.664C120.218 40.016 120.026 40.528 119.802 41.2C119.578 41.872 119.354 42.576 119.13 43.312C118.938 44.048 118.762 44.768 118.602 45.472C118.442 46.176 118.362 46.736 118.362 47.152C118.362 47.408 118.394 47.6 118.458 47.728C118.554 47.856 118.634 47.952 118.698 48.016C119.274 47.92 120.042 47.456 121.002 46.624C121.962 45.76 123.05 44.432 124.266 42.64C125.034 41.488 125.738 40.352 126.378 39.232C127.018 38.08 127.642 36.928 128.25 35.776C128.89 34.624 129.546 33.44 130.218 32.224C130.89 31.008 131.61 29.76 132.378 28.48C132.794 28.48 133.242 28.528 133.722 28.624C134.202 28.72 134.666 28.848 135.114 29.008C135.562 29.136 135.946 29.296 136.266 29.488C136.618 29.648 136.874 29.824 137.034 30.016C136.042 32.128 135.114 34.192 134.25 36.208C133.386 38.224 132.618 40.288 131.946 42.4Z" fill="white"/>
<path d="M168.871 17.488C168.967 18.032 169.031 18.416 169.063 18.64C169.127 18.832 169.159 19.104 169.159 19.456C169.159 20.512 168.919 21.504 168.439 22.432C167.991 23.328 167.367 23.968 166.567 24.352C165.927 23.488 165.143 22.752 164.215 22.144C163.287 21.504 162.263 20.992 161.143 20.608C160.055 20.192 158.919 19.888 157.735 19.696C156.551 19.504 155.399 19.408 154.279 19.408C153.159 19.408 152.103 19.504 151.111 19.696C150.151 19.856 149.287 20.096 148.519 20.416C147.783 20.704 147.191 21.072 146.743 21.52C146.327 21.968 146.119 22.48 146.119 23.056C146.215 23.76 146.647 24.48 147.415 25.216C148.183 25.92 149.127 26.624 150.247 27.328C151.367 28 152.599 28.672 153.943 29.344C155.319 30.016 156.663 30.656 157.975 31.264C159.607 32.032 161.015 32.752 162.199 33.424C163.383 34.064 164.359 34.784 165.127 35.584C165.895 36.352 166.471 37.232 166.855 38.224C167.239 39.216 167.431 40.416 167.431 41.824C167.431 43.456 167.159 44.992 166.615 46.432C166.071 47.84 165.271 49.072 164.215 50.128C163.191 51.184 161.943 52 160.471 52.576C158.999 53.184 157.351 53.488 155.527 53.488C153.735 53.488 151.799 53.216 149.719 52.672C147.639 52.128 145.687 51.376 143.863 50.416C142.071 49.488 140.567 48.416 139.351 47.2C138.167 45.952 137.575 44.64 137.575 43.264C137.575 42.624 137.751 41.808 138.103 40.816C138.487 39.824 139.159 38.784 140.119 37.696C140.215 38.656 140.727 39.792 141.655 41.104C142.615 42.416 144.039 43.632 145.927 44.752C147.687 45.776 149.495 46.528 151.351 47.008C153.239 47.456 154.999 47.68 156.631 47.68C158.423 47.68 159.879 47.456 160.999 47.008C162.119 46.56 162.999 46.032 163.639 45.424C164.279 44.784 164.727 44.144 164.983 43.504C165.239 42.864 165.383 42.352 165.415 41.968C165.383 41.328 165.079 40.72 164.503 40.144C163.959 39.536 163.207 38.96 162.247 38.416C161.319 37.84 160.231 37.264 158.983 36.688C157.735 36.112 156.439 35.536 155.095 34.96C153.079 34.064 151.335 33.232 149.863 32.464C148.423 31.664 147.223 30.864 146.263 30.064C145.335 29.232 144.647 28.368 144.199 27.472C143.783 26.576 143.575 25.552 143.575 24.4C143.575 22.608 144.119 20.912 145.207 19.312C146.295 17.712 147.863 16.496 149.911 15.664C150.935 15.216 152.023 14.896 153.175 14.704C154.359 14.512 155.511 14.416 156.631 14.416C158.743 14.416 160.807 14.704 162.823 15.28C164.839 15.856 166.855 16.592 168.871 17.488ZM170.616 46.768C170.616 45.36 170.952 43.392 171.624 40.864C172.296 38.304 173.24 35.328 174.456 31.936C176.44 26.528 178.296 22.032 180.024 18.448C181.784 14.832 183.496 12.016 185.16 10C185.544 10.064 186.008 10.224 186.552 10.48C187.128 10.736 187.688 11.024 188.232 11.344C188.776 11.632 189.256 11.936 189.672 12.256C190.12 12.576 190.408 12.832 190.536 13.024C188.04 15.968 185.848 19.136 183.96 22.528C182.072 25.92 180.344 29.808 178.776 34.192C177.432 37.968 176.408 41.376 175.704 44.416C175 47.424 174.648 49.936 174.648 51.952C174.648 52.496 174.648 52.832 174.648 52.96C174.648 53.088 174.664 53.216 174.696 53.344C174.248 53.28 173.864 53.168 173.544 53.008C173.224 52.848 173.016 52.656 172.92 52.432C172.856 52.272 172.68 52.032 172.392 51.712C172.104 51.424 171.848 51.2 171.624 51.04C171.336 50.848 171.096 50.352 170.904 49.552C170.712 48.72 170.616 47.792 170.616 46.768ZM187.484 51.52C185.66 51.328 184.204 50.528 183.116 49.12C182.028 47.712 181.484 45.92 181.484 43.744C181.484 42.464 181.676 41.136 182.06 39.76C182.444 38.384 182.988 37.056 183.692 35.776C184.396 34.464 185.228 33.232 186.188 32.08C187.148 30.928 188.188 29.936 189.308 29.104C191.068 27.792 192.716 27.136 194.252 27.136C195.276 27.68 196.284 28.816 197.276 30.544C197.436 30.544 197.58 30.544 197.708 30.544C197.836 30.512 197.98 30.496 198.14 30.496C199.836 30.496 200.684 32 200.684 35.008C200.684 37.024 200.348 38.944 199.676 40.768C199.036 42.56 198.124 44.192 196.94 45.664C195.788 47.136 194.396 48.384 192.764 49.408C191.164 50.4 189.404 51.104 187.484 51.52ZM189.932 36.4C189.388 37.136 188.876 37.936 188.396 38.8C187.916 39.664 187.5 40.544 187.148 41.44C186.796 42.304 186.524 43.152 186.332 43.984C186.14 44.784 186.044 45.504 186.044 46.144C186.044 46.912 186.172 47.648 186.428 48.352C186.684 49.056 186.972 49.456 187.292 49.552C188.732 49.232 190.044 48.64 191.228 47.776C192.444 46.88 193.484 45.776 194.348 44.464C195.244 43.152 195.932 41.664 196.412 40C196.924 38.336 197.18 36.56 197.18 34.672C197.18 33.84 197.132 33.184 197.036 32.704C196.94 32.224 196.78 31.808 196.556 31.456C195.148 31.872 193.884 32.544 192.764 33.472C191.676 34.4 190.732 35.376 189.932 36.4ZM205.371 31.456C205.211 31.264 205.067 30.864 204.939 30.256C204.811 29.616 204.747 29.072 204.747 28.624C205.579 28.688 206.379 28.752 207.147 28.816C207.915 28.848 208.619 28.88 209.259 28.912C209.739 27.952 210.251 27.008 210.795 26.08C211.371 25.12 211.915 24.256 212.427 23.488C212.971 22.688 213.467 22.016 213.915 21.472C214.395 20.928 214.763 20.576 215.019 20.416C215.339 20.416 215.739 20.48 216.219 20.608C216.731 20.704 217.243 20.848 217.755 21.04C218.267 21.2 218.731 21.376 219.147 21.568C219.563 21.76 219.851 21.952 220.011 22.144C219.051 23.36 218.219 24.496 217.515 25.552C216.843 26.576 216.107 27.76 215.307 29.104C215.947 29.104 216.587 29.088 217.227 29.056C217.899 29.024 218.571 28.976 219.243 28.912C219.403 29.072 219.531 29.28 219.627 29.536C219.723 29.76 219.771 30 219.771 30.256C218.203 30.832 216.299 31.152 214.059 31.216C213.259 32.752 212.539 34.288 211.899 35.824C211.291 37.328 210.763 38.784 210.315 40.192C209.899 41.6 209.563 42.928 209.307 44.176C209.083 45.424 208.971 46.544 208.971 47.536C208.971 48.944 209.499 49.728 210.555 49.888C211.515 49.76 212.427 49.52 213.291 49.168C214.155 48.816 214.923 48.368 215.595 47.824C215.787 48.112 215.899 48.352 215.931 48.544C215.739 48.832 215.403 49.168 214.923 49.552C214.475 49.936 213.979 50.304 213.435 50.656C212.891 51.04 212.363 51.36 211.851 51.616C211.339 51.872 210.955 52.016 210.699 52.048C209.899 52.016 209.099 51.84 208.299 51.52C207.499 51.2 206.763 50.8 206.091 50.32C205.451 49.84 204.923 49.312 204.507 48.736C204.091 48.128 203.883 47.536 203.883 46.96C203.883 46.192 203.979 45.232 204.171 44.08C204.395 42.896 204.699 41.616 205.083 40.24C205.467 38.864 205.915 37.424 206.427 35.92C206.939 34.416 207.499 32.928 208.107 31.456H205.371ZM219.366 49.024C219.366 47.904 219.478 46.592 219.702 45.088C219.926 43.552 220.246 41.92 220.662 40.192C221.11 38.464 221.622 36.656 222.198 34.768C222.806 32.88 223.478 30.992 224.214 29.104C224.854 27.408 225.59 25.696 226.422 23.968C227.286 22.24 228.214 20.544 229.206 18.88C230.198 17.216 231.222 15.632 232.278 14.128C233.366 12.624 234.454 11.248 235.542 10C236.054 10 236.598 10.064 237.174 10.192C237.782 10.32 238.358 10.496 238.902 10.72C239.478 10.912 239.99 11.152 240.438 11.44C240.918 11.728 241.302 12.016 241.59 12.304C239.19 14.768 237.03 17.264 235.11 19.792C233.19 22.288 231.67 24.64 230.55 26.848C229.942 28.064 229.382 29.2 228.87 30.256C228.39 31.312 227.942 32.368 227.526 33.424C227.11 34.448 226.726 35.488 226.374 36.544C226.054 37.568 225.75 38.656 225.462 39.808C231.606 31.968 236.166 28.048 239.142 28.048C239.974 28.048 240.87 28.32 241.83 28.864C242.79 29.408 243.638 30.144 244.374 31.072C243.382 32.16 242.358 33.472 241.302 35.008C240.246 36.544 239.27 38.096 238.374 39.664C237.51 41.2 236.79 42.64 236.214 43.984C235.67 45.296 235.398 46.272 235.398 46.912C235.398 47.232 235.446 47.456 235.542 47.584C235.638 47.68 235.846 47.728 236.166 47.728C236.646 47.728 237.03 47.664 237.318 47.536C237.606 47.408 237.782 47.344 237.846 47.344C238.006 47.6 238.102 47.776 238.134 47.872C238.166 47.968 238.182 48.048 238.182 48.112C238.182 48.24 237.99 48.432 237.606 48.688C237.222 48.912 236.758 49.152 236.214 49.408C235.702 49.632 235.19 49.84 234.678 50.032C234.166 50.224 233.782 50.32 233.526 50.32C233.206 50.32 232.886 50.224 232.566 50.032C232.246 49.872 231.958 49.648 231.702 49.36C231.478 49.072 231.286 48.752 231.126 48.4C230.998 48.048 230.934 47.68 230.934 47.296C230.934 46.816 231.062 46.112 231.318 45.184C231.606 44.224 231.99 43.12 232.47 41.872C232.95 40.592 233.526 39.2 234.198 37.696C234.87 36.192 235.59 34.656 236.358 33.088C236.358 32.96 236.294 32.896 236.166 32.896C236.07 32.896 235.814 33.024 235.398 33.28C235.014 33.536 234.646 33.792 234.294 34.048C233.142 34.912 231.974 35.984 230.79 37.264C229.638 38.512 228.502 39.888 227.382 41.392C226.294 42.896 225.254 44.496 224.262 46.192C223.302 47.856 222.47 49.536 221.766 51.232C221.67 51.456 221.526 51.664 221.334 51.856C221.142 52.048 220.982 52.144 220.854 52.144C220.758 52.144 220.614 52.032 220.422 51.808C220.262 51.584 220.102 51.296 219.942 50.944C219.814 50.624 219.686 50.288 219.558 49.936C219.43 49.584 219.366 49.28 219.366 49.024Z" fill="#F66249"/>
</g>
<defs>
<filter id="filter0_d_3_2" x="9.26129" y="10" width="239.113" height="65.168" filterUnits="userSpaceOnUse" color-interpolation-filters="sRGB">
<feFlood flood-opacity="0" result="BackgroundImageFix"/>
<feColorMatrix in="SourceAlpha" type="matrix" values="0 0 0 0 0 0 0 0 0 0 0 0 0 0 0 0 0 0 127 0" result="hardAlpha"/>
<feOffset dy="4"/>
<feGaussianBlur stdDeviation="2"/>
<feColorMatrix type="matrix" values="0 0 0 0 0 0 0 0 0 0 0 0 0 0 0 0 0 0 0.25 0"/>
<feBlend mode="normal" in2="BackgroundImageFix" result="effect1_dropShadow_3_2"/>
<feBlend mode="normal" in="SourceGraphic" in2="effect1_dropShadow_3_2" result="shape"/>
</filter>
</defs>
</svg>
